<svg width="24" height="24" viewBox="0 0 24 24" fill="none" xmlns="http://www.w3.org/2000/svg">
<g clip-path="url(#clip0_79_147)">
<path d="M4.25625 0.300049H19.7625C22.1063 0.300049 24.0188 2.1938 24.0188 4.5563V19.4625C24.0188 21.8063 22.125 23.7188 19.7625 23.7188H4.25625C1.89375 23.7 0 21.8063 0 19.4438V4.5563C0 2.1938 1.89375 0.300049 4.25625 0.300049Z" fill="#330000"/>
<path d="M11.6063 14.3062H7.87506L7.12506 16.6499C7.10631 16.7437 7.03131 16.7999 6.93756 16.7812H5.06256C4.95006 16.7812 4.93131 16.7249 4.95006 16.5937L8.17506 7.33115C8.21256 7.2374 8.23131 7.1249 8.26881 6.99365C8.30631 6.7874 8.32506 6.5624 8.32506 6.3374C8.30631 6.28115 8.36256 6.24365 8.40006 6.2249H10.9876C11.0626 6.2249 11.1001 6.2624 11.1188 6.2999L14.7751 16.5937C14.8126 16.7062 14.7751 16.7624 14.6813 16.7624H12.5813C12.5063 16.7812 12.4501 16.7249 12.4126 16.6499L11.6063 14.3062ZM8.45631 12.2624H10.9876C10.9313 12.0562 10.8563 11.7937 10.7626 11.5499C10.6688 11.2874 10.5751 10.9874 10.5001 10.6874C10.4063 10.3687 10.3126 10.0687 10.2188 9.76865C10.1251 9.4499 10.0313 9.16865 9.95631 8.8874C9.88131 8.60615 9.80631 8.34365 9.73131 8.0999H9.71256C9.61881 8.53115 9.50631 8.9624 9.37506 9.39365C9.22506 9.88115 9.07506 10.3687 8.90631 10.8749C8.75631 11.3812 8.60631 11.8499 8.45631 12.2624ZM17.0063 8.00615C16.6688 8.0249 16.3501 7.89365 16.1251 7.6499C15.9001 7.40615 15.7688 7.06865 15.7876 6.73115C15.7688 6.39365 15.9001 6.0749 16.1438 5.8499C16.3876 5.6249 16.7063 5.49365 17.0251 5.49365C17.4188 5.49365 17.7188 5.60615 17.9438 5.8499C18.1688 6.09365 18.2813 6.4124 18.2813 6.73115C18.3001 7.06865 18.1688 7.40615 17.9251 7.6499C17.6813 7.89365 17.3438 8.0249 17.0063 8.00615ZM15.8813 16.6874V8.98115C15.8813 8.8874 15.9188 8.8499 16.0126 8.8499H18.0001C18.0938 8.8499 18.1313 8.90615 18.1313 8.98115V16.6874C18.1313 16.7999 18.0938 16.8562 18.0001 16.8562H16.0313C15.9376 16.8374 15.8813 16.7812 15.8813 16.6874Z" fill="#FF9A00"/>
</g>
<defs>
<clipPath id="clip0_79_147">
<rect width="24" height="24" fill="white"/>
</clipPath>
</defs>
</svg>
